<svg xmlns="http://www.w3.org/2000/svg" width="33" height="33" fill="none" xmlns:v="https://vecta.io/nano"><path d="M29.325 0H4.124A3.44 3.44 0 0 0 .687 3.436v25.201a3.44 3.44 0 0 0 3.436 3.436h25.201a3.44 3.44 0 0 0 3.436-3.436V3.436A3.44 3.44 0 0 0 29.325 0zM20.54 27.47c-.601.107-.823-.265-.823-.573l.014-3.959c0-1.117-.372-1.826-.809-2.198 2.649-.294 5.441-.659 5.441-5.233 0-1.303-.465-1.954-1.224-2.792.122-.308.53-1.575-.122-3.222-.995-.308-3.272 1.282-3.272 1.282-.945-.265-1.969-.401-2.978-.401s-2.033.136-2.978.401c0 0-2.277-1.589-3.272-1.282-.652 1.639-.251 2.907-.122 3.222-.759.838-1.117 1.489-1.117 2.792 0 4.553 2.67 4.94 5.319 5.233-.344.308-.651.838-.759 1.597-.68.308-2.42.838-3.458-.995-.651-1.131-1.826-1.224-1.826-1.224-1.16-.014-.079.73-.079.73.773.358 1.317 1.733 1.317 1.733.694 2.126 4.016 1.41 4.016 1.41l.014 2.907c0 .308-.215.68-.823.573-4.725-1.582-8.033-6.078-8.033-11.333 0-6.572 5.026-11.562 11.598-11.562s11.899 4.99 11.899 11.562c.007 5.255-3.2 9.758-7.925 11.333zm-7.023-4.374c-.136.029-.265-.029-.279-.122-.014-.107.079-.2.215-.229.136-.014.265.043.279.136.021.093-.072.186-.215.215zm-.68-.064c0 .093-.107.172-.251.172-.158.014-.265-.064-.265-.172 0-.093.107-.172.251-.172.136-.014.265.064.265.172zm-.981-.079c-.029.093-.172.136-.294.093-.136-.029-.229-.136-.2-.229s.172-.136.293-.107c.143.043.236.15.2.243zm-.881-.387c-.065.079-.2.064-.308-.043-.107-.093-.136-.229-.064-.293.064-.079.2-.065.308.043.093.093.129.236.065.294zm-.652-.651c-.065.043-.186 0-.265-.107s-.079-.229 0-.279c.079-.064.2-.014.265.093.079.107.079.236 0 .294zm-.465-.695c-.064.065-.172.029-.251-.043-.079-.093-.093-.2-.029-.251.064-.064.172-.029.251.043.079.093.093.201.029.251zm-.48-.53c-.029.064-.122.079-.2.029-.093-.043-.136-.122-.107-.186.029-.043.107-.064.2-.029.093.05.136.129.107.186z" fill="#fff"/></svg>