<svg xmlns="http://www.w3.org/2000/svg" width="32" height="32" fill="none" xmlns:v="https://vecta.io/nano"><path d="M29.424 0H2.256C1.011 0 0 1.026 0 2.285v27.118c0 1.259 1.011 2.285 2.256 2.285h27.168a2.28 2.28 0 0 0 2.263-2.285V2.285A2.28 2.28 0 0 0 29.424 0zM9.577 27.161H4.88V12.038h4.704v15.122h-.007zM7.229 9.973c-1.507 0-2.723-1.224-2.723-2.723s1.217-2.723 2.723-2.723A2.73 2.73 0 0 1 9.952 7.25a2.72 2.72 0 0 1-2.723 2.723zm19.953 17.188h-4.696v-7.356c0-1.754-.035-4.011-2.44-4.011-2.447 0-2.822 1.91-2.822 3.883v7.483h-4.696V12.038h4.506v2.065h.064c.63-1.188 2.164-2.44 4.449-2.44 4.753 0 5.637 3.133 5.637 7.207v8.29z" fill="#fff"/></svg>