<svg xmlns="http://www.w3.org/2000/svg" width="24" height="24" fill-rule="evenodd" stroke-linejoin="round" fill="white" stroke-miterlimit="1.41421" xmlns:v="https://vecta.io/nano"><path d="M19 24H5a5 5 0 0 1-5-5V5a5 5 0 0 1 5-5h14a5 5 0 0 1 5 5v14a5 5 0 0 1-5 5zm-2.744-5.148a.79.79 0 0 0 .738.097c.246-.093.428-.304.483-.56l2.512-12.09c.039-.187-.027-.381-.173-.506a.54.54 0 0 0-.532-.093L4.361 11.267A.55.55 0 0 0 4 11.8c.008.235.167.44.395.509l3.65 1.128 1.472 4.41c.063.187.21.334.402.384s.397-.002.541-.138l2.064-1.948 3.732 2.707zm-7.34-5.784l1.119 3.692.249-2.338 6.79-6.124c.072-.065.082-.174.022-.251a.19.19 0 0 0-.251-.043l-7.929 5.064z"/></svg>